<svg xmlns="http://www.w3.org/2000/svg" width="497" height="59" fill="none" viewBox="0 0 497 59">
  <path fill="#fff" d="M117.377 42.947c-.168.08-.35.175-.547.277-1.058.553-2.399 1.173-4.026 1.865-1.626.692-3.471 1.29-5.542 1.8-2.071.51-4.237.758-6.491.758a32.67 32.67 0 0 1-8.54-1.108c-2.727-.736-5.141-1.88-7.234-3.425a16.886 16.886 0 0 1-4.974-5.778c-1.225-2.31-1.837-5.006-1.837-8.095 0-3.09.612-5.735 1.837-8.06a17.186 17.186 0 0 1 4.974-5.843c2.093-1.567 4.507-2.747 7.234-3.527 2.728-.787 5.58-1.173 8.54-1.173 2.4 0 4.573.182 6.527.554 1.955.372 3.661.758 5.12 1.173 1.458.415 2.611.809 3.456 1.173.124.059.241.102.358.153l-3.953 6.157a6.334 6.334 0 0 0-.561-.393c-.846-.532-1.896-1.006-3.144-1.42a32.95 32.95 0 0 0-3.952-1.036c-1.386-.277-2.669-.415-3.851-.415a19.31 19.31 0 0 0-5.68.83c-1.81.554-3.392 1.363-4.727 2.42a11.864 11.864 0 0 0-3.208 3.913c-.803 1.544-1.204 3.308-1.204 5.29 0 1.982.401 3.745 1.204 5.29a11.956 11.956 0 0 0 3.208 3.913c1.342 1.063 2.917 1.865 4.726 2.419a19.31 19.31 0 0 0 5.681.83c1.503 0 3.085-.174 4.726-.517 1.648-.35 3.15-.787 4.514-1.312 1.364-.531 2.509-1.129 3.42-1.8.175-.123.329-.247.467-.37l3.464 5.457h.015Zm43.508-31.893h8.044V47.45h-8.044V31.952h-22.731V47.45h-8.044V11.054h8.044v14.252h22.731V11.054Zm46.076 0c2.261 0 4.303.197 6.14.59 1.838.393 3.413 1.013 4.726 1.865a8.629 8.629 0 0 1 3.034 3.323c.707 1.363 1.057 3.031 1.057 5.013 0 3.046-.919 5.378-2.749 6.988-1.838 1.618-4.303 2.696-7.41 3.25l9.386 13.145 1.583 2.215h-9.072s-2.509-3.505-2.888-4.015l-7.767-10.791h-10.093v14.806h-8.044V11.046h22.09l.007.008Zm-1.838 16.19c1.692 0 3.107-.123 4.237-.378 1.131-.256 2.02-.613 2.684-1.072.656-.459 1.13-1.005 1.415-1.625a4.85 4.85 0 0 0 .423-2.04c0-.736-.139-1.42-.423-2.04-.285-.62-.752-1.166-1.415-1.625-.656-.459-1.553-.816-2.684-1.071-1.13-.255-2.538-.379-4.237-.379h-12.208v10.238h12.208v-.008Zm50.663-16.606c2.589 0 5.222.379 7.905 1.144a24.736 24.736 0 0 1 7.344 3.425 18.622 18.622 0 0 1 5.433 5.778c1.415 2.332 2.115 5.086 2.115 8.27 0 3.185-.707 5.939-2.115 8.27a18.715 18.715 0 0 1-5.433 5.779c-2.21 1.523-4.66 2.63-7.344 3.322-2.683.693-5.316 1.042-7.905 1.042-2.589 0-5.222-.35-7.905-1.041a22.99 22.99 0 0 1-7.344-3.323 18.622 18.622 0 0 1-5.433-5.778c-1.415-2.332-2.115-5.087-2.115-8.27 0-3.185.707-5.94 2.115-8.27a18.704 18.704 0 0 1 5.433-5.78c2.209-1.522 4.66-2.666 7.344-3.424 2.683-.758 5.316-1.144 7.905-1.144Zm0 6.369c-1.787 0-3.574.276-5.368.83-1.786.554-3.398 1.348-4.835 2.39a12.402 12.402 0 0 0-3.493 3.84c-.897 1.523-1.342 3.25-1.342 5.188 0 1.939.445 3.665 1.342 5.188a12.4 12.4 0 0 0 3.493 3.84c1.437 1.042 3.049 1.837 4.835 2.39a18.04 18.04 0 0 0 5.368.831 18.09 18.09 0 0 0 5.367-.83c1.787-.554 3.399-1.349 4.835-2.39a12.477 12.477 0 0 0 3.494-3.84c.897-1.524 1.342-3.25 1.342-5.189 0-1.938-.445-3.665-1.342-5.188a12.479 12.479 0 0 0-3.494-3.84 16.635 16.635 0 0 0-4.835-2.39 18.025 18.025 0 0 0-5.367-.83Zm88.862 26.567 13.061-26.917c.329-.597 2.721-5.603 2.721-5.603h5.724s2.378 4.59 2.706 5.188l14.68 28.162c.234.51 1.59 3.046 1.59 3.046h-9.087s-1.655-3.133-2.027-3.876l-2.684-5.123h-17.225l-2.538 4.911c-.474.97-2.115 4.08-2.115 4.08h-6.687s1.553-3.227 1.881-3.876v.008Zm24.139-10.245-5.929-12.868-6.636 12.868h12.565Zm43.582 14.121h-8.044V17.422h-14.753v-6.368h37.55v6.368h-14.753V47.45Zm25.466 0V11.054h8.044V47.45h-8.044Zm59.006-4.503c-.168.08-.35.175-.547.277-1.058.553-2.4 1.173-4.026 1.865s-3.471 1.29-5.542 1.8c-2.072.51-4.237.758-6.491.758a32.67 32.67 0 0 1-8.54-1.108c-2.727-.736-5.141-1.88-7.234-3.425a16.888 16.888 0 0 1-4.974-5.778c-1.225-2.31-1.838-5.006-1.838-8.095 0-3.09.613-5.735 1.838-8.06a17.185 17.185 0 0 1 4.974-5.843c2.093-1.567 4.507-2.747 7.234-3.527 2.728-.787 5.579-1.173 8.54-1.173 2.399 0 4.573.182 6.527.554 1.955.372 3.661.758 5.12 1.173 1.458.415 2.61.809 3.456 1.173.124.059.241.102.358.153l-3.953 6.157a6.212 6.212 0 0 0-.562-.393c-.845-.532-1.896-1.006-3.143-1.42a32.95 32.95 0 0 0-3.952-1.036c-1.386-.277-2.669-.415-3.851-.415-1.976 0-3.872.277-5.681.83-1.809.554-3.391 1.363-4.726 2.42a11.863 11.863 0 0 0-3.209 3.913c-.802 1.544-1.203 3.308-1.203 5.29 0 1.982.401 3.745 1.203 5.29a11.964 11.964 0 0 0 3.209 3.913c1.342 1.063 2.917 1.865 4.726 2.419 1.809.553 3.705.83 5.681.83 1.502 0 3.085-.174 4.726-.517 1.648-.35 3.15-.787 4.514-1.312 1.364-.531 2.509-1.129 3.42-1.8a5.29 5.29 0 0 0 .467-.37l3.464 5.457h.015ZM289.909 47.45V11.054h9.247l12.427 22.144 12.653-22.144h9.225V47.45h-7.767V21.983h-.138L311.371 47.45h-.211l-13.908-25.532h-.138V47.45h-7.205ZM52.165 0l-19.99 9.793V48.5l19.99 9.793V0Z"/>
  <path fill="#fff" d="M33.014 0 19.377 9.851v38.59l13.637 9.851V0ZM17.05 0 8.802 9.851v38.59l8.248 9.851V0ZM3.748 0 0 9.851v38.59l3.748 9.851V0Z"/>
</svg>