<svg xmlns="http://www.w3.org/2000/svg" width="529" height="88" fill="none" viewBox="0 0 529 88">
  <path fill="#000" d="M112.709 63.961h6.163c4.813 0 8.036 1.64 8.036 6.332 0 4.693-3.194 6.653-7.919 6.653h-3.552v8.533h-2.728V63.96Zm5.922 10.785c3.785 0 5.572-1.378 5.572-4.453 0-3.074-1.911-4.102-5.689-4.102h-3.077v8.555h3.194Zm24.35-10.785h6.746c4.369 0 7.512 1.582 7.512 6.07 0 3.345-1.933 5.334-4.872 6.04l5.514 9.408h-3.078l-5.222-9.116h-3.872v9.116h-2.728V63.96Zm6.338 10.202c3.369 0 5.221-1.348 5.221-4.132 0-2.783-1.845-3.84-5.221-3.84h-3.61v7.972h3.61Zm22.819.495c0-6.886 3.785-11.075 9.182-11.075 5.396 0 9.181 4.19 9.181 11.075 0 6.886-3.785 11.192-9.181 11.192-5.397 0-9.182-4.306-9.182-11.192Zm15.578 0c0-5.392-2.553-8.707-6.396-8.707-3.844 0-6.396 3.308-6.396 8.707 0 5.4 2.523 8.824 6.396 8.824 3.872 0 6.396-3.461 6.396-8.824Zm22.855-8.379h-6.512V63.96h15.752v2.318h-6.512v19.2h-2.728v-19.2Zm22.79 8.379c0-6.886 3.785-11.075 9.181-11.075 5.397 0 9.182 4.19 9.182 11.075 0 6.886-3.785 11.192-9.182 11.192-5.396 0-9.181-4.306-9.181-11.192Zm15.577 0c0-5.392-2.552-8.707-6.396-8.707-3.843 0-6.395 3.308-6.395 8.707 0 5.4 2.523 8.824 6.395 8.824 3.873 0 6.396-3.461 6.396-8.824Zm17.926.088c0-6.945 4.076-11.163 9.531-11.163 2.611 0 4.668 1.29 5.893 2.666l-1.466 1.756c-1.116-1.202-2.552-2.054-4.397-2.054-4.077 0-6.775 3.344-6.775 8.707 0 5.363 2.581 8.824 6.687 8.824 2.057 0 3.61-.91 4.988-2.404l1.495 1.697c-1.699 1.96-3.814 3.075-6.6 3.075-5.338 0-9.356-4.131-9.356-11.104Zm29.506-.088c0-6.886 3.785-11.075 9.182-11.075 5.396 0 9.181 4.19 9.181 11.075 0 6.886-3.785 11.192-9.181 11.192-5.397 0-9.182-4.306-9.182-11.192Zm15.577 0c0-5.392-2.552-8.707-6.395-8.707-3.844 0-6.396 3.308-6.396 8.707 0 5.4 2.523 8.824 6.396 8.824 3.872 0 6.395-3.461 6.395-8.824Zm19.158-10.697h2.728v19.2h9.386v2.318h-12.114V63.96ZM148.699 39.333c-.168.08-.35.175-.547.277-1.057.554-2.399 1.173-4.025 1.865-1.627.692-3.472 1.29-5.543 1.8s-4.237.758-6.491.758c-2.96 0-5.812-.372-8.539-1.108-2.728-.736-5.142-1.88-7.235-3.424a16.876 16.876 0 0 1-4.973-5.779c-1.226-2.31-1.838-5.006-1.838-8.095 0-3.09.612-5.735 1.838-8.059a17.182 17.182 0 0 1 4.973-5.844c2.093-1.566 4.507-2.747 7.235-3.526 2.727-.787 5.579-1.174 8.539-1.174 2.4 0 4.573.183 6.527.554 1.955.372 3.661.758 5.12 1.173 1.459.416 2.611.81 3.457 1.173.124.059.24.102.357.153l-3.953 6.158a6.21 6.21 0 0 0-.561-.394c-.846-.532-1.896-1.005-3.143-1.42a32.936 32.936 0 0 0-3.953-1.035c-1.386-.277-2.669-.416-3.851-.416a19.31 19.31 0 0 0-5.681.83c-1.808.555-3.391 1.364-4.725 2.42a11.864 11.864 0 0 0-3.209 3.913c-.802 1.545-1.203 3.308-1.203 5.29 0 1.982.401 3.745 1.203 5.29a11.949 11.949 0 0 0 3.209 3.913c1.342 1.064 2.917 1.865 4.725 2.419a19.31 19.31 0 0 0 5.681.83c1.503 0 3.085-.174 4.726-.517a29.876 29.876 0 0 0 4.514-1.311c1.364-.532 2.509-1.13 3.421-1.8.175-.124.328-.248.466-.372l3.464 5.458h.015Zm43.509-31.9h8.043v36.396h-8.043V28.33h-22.732v15.498h-8.044V7.433h8.044v14.252h22.732V7.433Zm46.075 0c2.261 0 4.303.196 6.141.59 1.837.393 3.413 1.013 4.725 1.865a8.62 8.62 0 0 1 3.034 3.323c.707 1.362 1.058 3.031 1.058 5.013 0 3.046-.919 5.378-2.75 6.988-1.838 1.617-4.303 2.696-7.409 3.25l9.385 13.145 1.583 2.215h-9.072s-2.509-3.505-2.888-4.015l-7.767-10.792H224.23v14.807h-8.044V7.425h22.09l.007.008Zm-1.838 16.19c1.692 0 3.107-.124 4.237-.379 1.131-.255 2.02-.612 2.684-1.07.656-.46 1.131-1.006 1.415-1.626a4.85 4.85 0 0 0 .423-2.04 4.85 4.85 0 0 0-.423-2.04c-.284-.62-.751-1.166-1.415-1.625-.656-.459-1.553-.816-2.684-1.071-1.13-.255-2.537-.379-4.237-.379h-12.208v10.238h12.208v-.008Zm50.663-16.606c2.589 0 5.222.379 7.906 1.144a24.742 24.742 0 0 1 7.343 3.425 18.622 18.622 0 0 1 5.433 5.778c1.415 2.332 2.115 5.086 2.115 8.27 0 3.184-.707 5.939-2.115 8.27a18.704 18.704 0 0 1-5.433 5.779c-2.209 1.523-4.66 2.63-7.343 3.322-2.684.692-5.317 1.042-7.906 1.042-2.589 0-5.221-.35-7.905-1.042a22.99 22.99 0 0 1-7.344-3.322 18.622 18.622 0 0 1-5.433-5.779c-1.415-2.331-2.115-5.086-2.115-8.27 0-3.184.707-5.938 2.115-8.27a18.716 18.716 0 0 1 5.433-5.778c2.21-1.523 4.66-2.667 7.344-3.425s5.316-1.144 7.905-1.144Zm0 6.369a18.1 18.1 0 0 0-5.367.83c-1.787.554-3.399 1.348-4.835 2.39a12.393 12.393 0 0 0-3.494 3.84c-.897 1.523-1.341 3.25-1.341 5.188 0 1.938.444 3.665 1.341 5.188a12.391 12.391 0 0 0 3.494 3.84c1.436 1.042 3.048 1.837 4.835 2.39 1.786.554 3.573.83 5.367.83s3.574-.276 5.368-.83c1.786-.553 3.398-1.348 4.835-2.39a12.487 12.487 0 0 0 3.493-3.84c.897-1.523 1.342-3.25 1.342-5.188 0-1.938-.445-3.665-1.342-5.188a12.488 12.488 0 0 0-3.493-3.84 16.66 16.66 0 0 0-4.835-2.39 18.036 18.036 0 0 0-5.368-.83Zm88.87 26.574 13.061-26.917c.328-.598 2.72-5.604 2.72-5.604h5.725s2.378 4.591 2.706 5.188l14.68 28.163c.233.51 1.59 3.046 1.59 3.046h-9.087s-1.655-3.133-2.027-3.877l-2.684-5.122h-17.226l-2.537 4.911c-.474.97-2.115 4.08-2.115 4.08h-6.688s1.554-3.227 1.882-3.876v.007Zm24.139-10.246-5.929-12.868-6.637 12.868h12.566Zm43.574 14.115h-8.044V13.8h-14.753V7.433h37.55V13.8h-14.753v30.03Zm25.466 0V7.433h8.044v36.396h-8.044Zm59.013-4.496c-.167.08-.35.175-.547.277-1.057.554-2.399 1.173-4.025 1.865-1.627.692-3.472 1.29-5.543 1.8s-4.237.758-6.49.758c-2.961 0-5.813-.372-8.54-1.108-2.728-.736-5.142-1.88-7.235-3.424a16.887 16.887 0 0 1-4.973-5.779c-1.225-2.31-1.838-5.006-1.838-8.095 0-3.09.613-5.735 1.838-8.059a17.182 17.182 0 0 1 4.973-5.844c2.093-1.566 4.507-2.747 7.235-3.526 2.727-.787 5.579-1.174 8.54-1.174 2.399 0 4.572.183 6.527.554 1.954.372 3.661.758 5.119 1.173 1.459.416 2.611.81 3.457 1.173.124.059.241.102.357.153l-3.952 6.158a6.232 6.232 0 0 0-.562-.394c-.846-.532-1.896-1.005-3.143-1.42a32.936 32.936 0 0 0-3.953-1.035c-1.385-.277-2.669-.416-3.85-.416a19.3 19.3 0 0 0-5.681.83c-1.809.555-3.392 1.364-4.726 2.42a11.864 11.864 0 0 0-3.209 3.913c-.802 1.545-1.203 3.308-1.203 5.29 0 1.982.401 3.745 1.203 5.29a11.949 11.949 0 0 0 3.209 3.913c1.342 1.064 2.917 1.865 4.726 2.419a19.3 19.3 0 0 0 5.681.83c1.502 0 3.085-.174 4.725-.517a29.785 29.785 0 0 0 4.515-1.311c1.363-.532 2.508-1.13 3.42-1.8.175-.124.328-.248.467-.372l3.464 5.458h.014Zm-206.939 4.496V7.433h9.247l12.427 22.143 12.653-22.143h9.225v36.396h-7.767V18.363h-.138l-14.184 25.466h-.212l-13.907-25.532h-.139v25.532h-7.205ZM78.251 0l-29.98 14.69v58.066L78.25 87.44V0Z"/>
  <path fill="#000" d="M49.518 0 29.06 14.777v57.885l20.457 14.777V0ZM25.576 0 13.207 14.777v57.885l12.369 14.777V0ZM5.623 0 0 14.777v57.885l5.623 14.777V0Z"/>
</svg>