<svg version="1.0" xmlns="http://www.w3.org/2000/svg"
 width="480pt" height="480pt" viewBox="0 0 480 480"
 preserveAspectRatio="xMidYMid meet">

<g transform="translate(0.000000,480) scale(0.100000,-0.100000)"
fill="#000000" stroke="none">
<path d="M1348 4198 l-308 -368 0 -1458 0 -1458 308 -368 307 -368 3 1102 c1
606 1 1593 0 2193 l-3 1092 -307 -367z"/>
<path d="M2348 4202 l-507 -367 0 -1461 -1 -1462 513 -371 512 -370 3 349 c1
193 6 350 10 350 4 0 327 -157 717 -348 l710 -349 3 2195 c1 1208 1 2197 -1
2199 -2 1 -324 -155 -717 -347 -392 -193 -714 -350 -716 -350 -2 0 -4 158 -4
350 0 193 -3 350 -7 349 -5 0 -236 -166 -515 -367z"/>
<path d="M518 4204 l-138 -361 0 -1469 -1 -1469 138 -364 138 -364 3 1096 c1
603 1 1591 0 2194 l-3 1098 -137 -361z"/>
</g>
</svg>
