<svg width="528" height="167" viewBox="0 0 528 167" fill="none" xmlns="http://www.w3.org/2000/svg">
<path d="M162 166H174V108H162V166Z" fill="#030303" stroke="#030303" stroke-width="0.5" stroke-miterlimit="10"/>
<path d="M147 166H160V106H147V166Z" fill="#030303" stroke="#030303" stroke-width="0.5" stroke-miterlimit="10"/>
<path d="M132 166H145V94H132V166Z" fill="#030303" stroke="#030303" stroke-width="0.5" stroke-miterlimit="10"/>
<path d="M189 112H176V166H189V112Z" fill="#030303" stroke="#030303" stroke-width="0.5" stroke-miterlimit="10"/>
<path d="M203 112H191V166H203V112Z" fill="#030303" stroke="#030303" stroke-width="0.5" stroke-miterlimit="10"/>
<path d="M218 115H205V166H218V115Z" fill="#030303" stroke="#030303" stroke-width="0.5" stroke-miterlimit="10"/>
<path d="M232 120H220V166H232V120Z" fill="#030303" stroke="#030303" stroke-width="0.5" stroke-miterlimit="10"/>
<path d="M247 130H234V166H247V130Z" fill="#030303" stroke="#030303" stroke-width="0.5" stroke-miterlimit="10"/>
<path d="M262 128H249V166H262V128Z" fill="#030303" stroke="#030303" stroke-width="0.5" stroke-miterlimit="10"/>
<path d="M14 1H1V166H14V1Z" fill="#030303" stroke="#030303" stroke-width="0.5" stroke-miterlimit="10"/>
<path d="M118 166H130V81H118L118 166Z" fill="#030303" stroke="#030303" stroke-width="0.5" stroke-miterlimit="10"/>
<path d="M103 166H116L116 94H103L103 166Z" fill="#030303" stroke="#030303" stroke-width="0.5" stroke-miterlimit="10"/>
<path d="M89 166H101L101 82H89L89 166Z" fill="#030303" stroke="#030303" stroke-width="0.5" stroke-miterlimit="10"/>
<path d="M74 166H87L87 77H74L74 166Z" fill="#030303" stroke="#030303" stroke-width="0.5" stroke-miterlimit="10"/>
<path d="M59 166H72L72 70H59L59 166Z" fill="#030303" stroke="#030303" stroke-width="0.5" stroke-miterlimit="10"/>
<path d="M45 166H57L57 32H45L45 166Z" fill="#030303" stroke="#030303" stroke-width="0.5" stroke-miterlimit="10"/>
<path d="M30 166H43L43 43H30L30 166Z" fill="#030303" stroke="#030303" stroke-width="0.5" stroke-miterlimit="10"/>
<path d="M16 166H28L28 10H16L16 166Z" fill="#030303" stroke="#030303" stroke-width="0.5" stroke-miterlimit="10"/>
<path d="M277 140H264V166H277V140Z" fill="#030303" stroke="#030303" stroke-width="0.5" stroke-miterlimit="10"/>
<path d="M292 135H279V166H292V135Z" fill="#030303" stroke="#030303" stroke-width="0.5" stroke-miterlimit="10"/>
<path d="M306 140H294V166H306V140Z" fill="#030303" stroke="#030303" stroke-width="0.5" stroke-miterlimit="10"/>
<path d="M321 141H308V166H321V141Z" fill="#030303" stroke="#030303" stroke-width="0.5" stroke-miterlimit="10"/>
<path d="M335 143H323V166H335V143Z" fill="#030303" stroke="#030303" stroke-width="0.5" stroke-miterlimit="10"/>
<path d="M350 148H337V166H350V148Z" fill="#030303" stroke="#030303" stroke-width="0.5" stroke-miterlimit="10"/>
<path d="M365 146H352V166H365V146Z" fill="#030303" stroke="#030303" stroke-width="0.5" stroke-miterlimit="10"/>
<path d="M379 149H367V166H379V149Z" fill="#030303" stroke="#030303" stroke-width="0.5" stroke-miterlimit="10"/>
<path d="M394 146H381V166H394V146Z" fill="#030303" stroke="#030303" stroke-width="0.5" stroke-miterlimit="10"/>
<path d="M407 155H396V166H407V155Z" fill="#030303" stroke="#030303" stroke-width="0.5" stroke-miterlimit="10"/>
<path d="M420 155H409V166H420V155Z" fill="#030303" stroke="#030303" stroke-width="0.5" stroke-miterlimit="10"/>
<path d="M434 155H422V166H434V155Z" fill="#030303" stroke="#030303" stroke-width="0.5" stroke-miterlimit="10"/>
<path d="M447 157H436V166H447V157Z" fill="#030303" stroke="#030303" stroke-width="0.5" stroke-miterlimit="10"/>
<path d="M460 158H449V166H460V158Z" fill="#030303" stroke="#030303" stroke-width="0.5" stroke-miterlimit="10"/>
<path d="M474 158H462V166H474V158Z" fill="#030303" stroke="#030303" stroke-width="0.5" stroke-miterlimit="10"/>
<path d="M487 159H476V166H487V159Z" fill="#030303" stroke="#030303" stroke-width="0.5" stroke-miterlimit="10"/>
<path d="M500 159H489V166H500V159Z" fill="#030303" stroke="#030303" stroke-width="0.5" stroke-miterlimit="10"/>
<path d="M514 161H502V166H514V161Z" fill="#030303" stroke="#030303" stroke-width="0.5" stroke-miterlimit="10"/>
<path d="M527 161H516V166H527V161Z" fill="#030303" stroke="#030303" stroke-width="0.5" stroke-miterlimit="10"/>
</svg>
