
<?xml version="1.0" standalone="no"?>
<!DOCTYPE svg PUBLIC "-//W3C//DTD SVG 20010904//EN"
 "http://www.w3.org/TR/2001/REC-SVG-20010904/DTD/svg10.dtd">
<svg version="1.0" xmlns="http://www.w3.org/2000/svg"
 width="386.000000pt" height="312.000000pt" viewBox="0 0 386.000000 312.000000"
 preserveAspectRatio="xMidYMid meet">
<metadata>
Created by potrace 1.16, written by Peter Selinger 2001-2019
</metadata>
<g transform="translate(0.000000,312.000000) scale(0.100000,-0.100000)"
fill="#000000" stroke="none">
<path d="M1830 2020 l-5 -565 -560 -5 -560 -5 550 -3 550 -2 -260 -260 -260
-260 -220 0 -219 0 42 43 c48 49 56 87 19 87 -16 0 -48 -25 -100 -79 -42 -43
-77 -82 -77 -86 0 -4 35 -43 77 -86 52 -54 84 -79 100 -79 39 0 29 39 -24 93
l-48 49 237 -4 238 -3 260 260 260 260 3 -535 2 -535 3 541 2 540 28 27 28 27
510 2 509 3 -505 2 -505 3 265 265 265 265 200 0 199 0 -49 -50 c-41 -42 -48
-53 -39 -68 6 -9 16 -17 22 -17 15 0 172 155 172 169 0 6 -35 47 -79 90 -53
53 -84 77 -97 74 -34 -6 -26 -36 22 -88 l47 -50 -214 0 -214 0 -280 -280 -280
-280 -5 552 -5 553 -5 -565z"/>
</g>
</svg>
