
<?xml version="1.0" standalone="no"?>
<!DOCTYPE svg PUBLIC "-//W3C//DTD SVG 20010904//EN"
 "http://www.w3.org/TR/2001/REC-SVG-20010904/DTD/svg10.dtd">
<svg version="1.0" xmlns="http://www.w3.org/2000/svg"
 width="385.000000pt" height="274.000000pt" viewBox="0 0 385.000000 274.000000"
 preserveAspectRatio="xMidYMid meet">
<metadata>
Created by potrace 1.16, written by Peter Selinger 2001-2019
</metadata>
<g transform="translate(0.000000,274.000000) scale(0.100000,-0.100000)"
fill="#000000" stroke="none">
<path d="M1935 2388 c-37 -20 -55 -51 -55 -99 0 -49 22 -80 68 -94 20 -6 22
-12 22 -83 0 -47 -8 -101 -19 -137 -13 -41 -16 -67 -10 -83 21 -55 -7 -59 -36
-5 -44 83 -175 112 -352 79 -124 -23 -190 -23 -235 -2 -21 10 -38 22 -38 26 0
16 -103 90 -125 90 -12 0 -29 -7 -36 -16 -8 -9 -32 -28 -54 -41 -66 -41 -82
-78 -49 -114 11 -12 13 -23 6 -36 -5 -10 -7 -24 -5 -31 3 -7 -1 -21 -9 -30 -8
-9 -20 -35 -27 -57 -7 -22 -33 -83 -58 -135 -25 -52 -54 -120 -65 -150 -19
-51 -50 -124 -84 -194 -8 -16 -14 -37 -14 -46 0 -10 -7 -23 -15 -30 -8 -7 -15
-20 -15 -30 0 -10 -7 -23 -15 -30 -8 -7 -15 -23 -15 -35 0 -12 -7 -28 -15 -35
-8 -7 -15 -19 -15 -28 0 -8 -7 -24 -17 -34 -9 -11 -11 -18 -5 -18 7 0 12 -7
12 -15 0 -8 -6 -12 -13 -10 -6 3 -18 -4 -25 -16 -12 -18 -11 -23 5 -34 17 -13
17 -14 -7 -23 -14 -5 -28 -8 -32 -5 -11 6 -10 -2 3 -30 8 -17 37 -37 88 -61
152 -71 228 -87 412 -87 139 0 215 17 331 74 73 37 83 46 86 71 3 26 2 28 -12
13 -9 -8 -16 -20 -16 -26 0 -6 -5 -11 -11 -11 -7 0 -9 8 -5 20 3 11 9 28 12
39 3 10 0 24 -8 32 -7 8 -14 28 -16 44 -2 17 -9 39 -16 50 -6 11 -18 40 -25
65 -29 94 -43 135 -50 145 -5 5 -14 28 -20 50 -14 45 -58 161 -72 187 -5 10
-9 26 -9 35 0 10 -12 43 -26 73 -15 30 -31 66 -37 80 -5 14 -13 33 -18 42 -5
10 -9 27 -9 37 0 11 -4 23 -10 26 -5 3 -10 16 -10 29 0 12 -4 26 -9 32 -4 5
-13 24 -19 42 -9 27 -9 38 4 56 11 18 12 30 5 50 -27 69 26 75 89 10 80 -82
130 -96 348 -95 173 1 185 -3 213 -67 24 -56 59 -73 101 -49 55 32 73 16 62
-54 -5 -27 -2 -46 10 -63 9 -14 16 -33 16 -43 0 -10 7 -29 16 -42 l16 -23 19
29 c11 15 17 36 15 46 -2 9 3 31 11 48 12 24 13 36 4 55 -15 33 -14 34 8 34
10 0 26 -11 35 -25 19 -29 67 -34 112 -10 58 30 128 9 259 -75 33 -21 89 -48
124 -60 72 -24 110 -21 173 11 36 19 88 26 88 12 0 -4 -12 -19 -26 -34 -21
-22 -25 -33 -19 -58 4 -17 11 -31 17 -31 19 0 -14 -128 -67 -255 -6 -16 -18
-46 -25 -65 -7 -19 -26 -64 -43 -100 -16 -36 -37 -81 -45 -100 -8 -19 -19 -42
-24 -50 -4 -8 -11 -22 -14 -30 -9 -23 -23 -53 -33 -70 -30 -53 -41 -80 -32
-80 6 0 11 -5 11 -11 0 -6 -7 -9 -15 -5 -10 4 -15 -1 -15 -14 0 -11 -4 -20
-10 -20 -5 0 -14 -18 -20 -40 -6 -22 -15 -40 -21 -40 -5 0 -15 -13 -20 -30 -6
-16 -19 -32 -29 -35 -27 -9 -45 -60 -32 -90 7 -14 17 -25 23 -25 6 0 46 -16
90 -35 167 -73 377 -101 546 -71 50 9 138 32 195 50 82 27 106 39 119 61 22
35 13 63 -27 87 -23 13 -38 34 -50 66 -10 26 -23 54 -31 63 -7 8 -13 20 -13
26 0 6 -12 35 -26 65 -14 29 -32 67 -39 83 -6 17 -18 44 -25 60 -7 17 -19 42
-26 57 -8 14 -14 31 -14 37 0 6 -12 36 -26 68 -31 69 -47 106 -64 153 -20 58
-26 73 -49 121 -11 25 -24 61 -27 80 -4 19 -11 42 -16 52 -6 11 -5 30 3 52 12
31 11 38 -9 64 -12 17 -22 37 -22 46 0 9 -5 25 -10 36 -13 24 -78 26 -140 4
-97 -34 -150 -17 -280 91 -114 94 -165 122 -238 130 -38 5 -56 1 -95 -20 -26
-14 -54 -26 -60 -26 -18 0 -35 52 -26 79 6 15 2 42 -12 83 -17 46 -20 74 -16
117 4 31 2 63 -3 70 -6 11 3 25 33 52 37 33 42 41 41 80 -1 35 -7 48 -33 71
-34 30 -88 37 -126 16z m-689 -398 c34 -33 71 -60 81 -60 11 0 23 -4 28 -9 6
-5 57 0 120 12 141 27 274 28 336 4 37 -14 51 -27 70 -61 19 -36 21 -48 12
-68 l-12 -23 0 28 c-1 19 -6 27 -20 27 -31 0 -43 -23 -25 -48 18 -26 3 -30
-21 -6 -9 9 -14 23 -11 31 3 8 6 17 6 19 0 3 11 9 25 14 14 5 25 14 25 20 0
19 -51 59 -87 69 -38 11 -172 -1 -268 -24 l-60 -14 60 6 c107 11 210 6 248
-12 37 -17 53 -40 36 -50 -5 -4 -12 0 -15 9 -13 33 -73 43 -221 38 -78 -2
-150 -1 -160 3 -17 8 -27 10 -66 13 -10 1 -47 29 -82 62 -35 33 -71 60 -79 60
-8 0 -18 5 -21 10 -3 6 4 10 16 10 14 0 47 -23 85 -60z m-117 -212 c7 -24 17
-51 22 -60 5 -10 9 -22 9 -28 0 -9 10 -33 55 -135 7 -16 23 -57 35 -90 12 -33
26 -71 32 -85 5 -14 17 -45 25 -70 8 -25 20 -58 28 -75 7 -16 18 -48 25 -70 7
-22 16 -49 20 -60 27 -70 32 -85 30 -90 -1 -3 5 -16 13 -28 22 -35 28 -83 12
-97 -8 -7 -45 -14 -82 -15 -41 -2 -58 0 -43 4 18 5 0 10 -62 15 l-88 8 -9 36
c-12 46 -17 105 -37 417 -3 55 -12 161 -18 235 -7 74 -12 154 -11 177 1 25 -2
40 -8 36 -6 -3 -8 -2 -5 3 3 5 8 18 12 29 7 19 8 19 20 3 7 -9 18 -36 25 -60z
m1196 41 c23 -11 83 -55 135 -99 58 -50 112 -87 141 -97 26 -10 45 -21 43 -25
-7 -11 29 -10 42 0 5 5 44 19 86 32 64 19 80 21 93 10 22 -18 19 -33 -5 -20
-23 12 -36 10 -129 -27 -64 -25 -84 -25 -144 -1 -21 8 -25 13 -15 19 11 7 11
9 -1 9 -7 0 -39 21 -71 48 -166 136 -191 150 -273 151 -42 1 -52 -3 -78 -31
-32 -36 -33 -53 -3 -53 14 0 18 6 17 22 -2 16 2 21 12 17 32 -13 7 -54 -32
-54 -35 0 -51 41 -29 75 37 57 121 66 211 24z m-1266 -71 c6 -145 8 -173 14
-188 3 -8 6 -22 6 -30 1 -8 3 -52 6 -96 2 -45 7 -117 10 -160 3 -44 8 -117 11
-164 5 -92 10 -159 14 -175 8 -34 2 -35 -225 -35 l-225 0 -6 25 c-4 17 2 43
20 79 14 29 26 57 26 62 0 5 14 38 31 74 72 150 102 221 95 227 -3 3 4 14 14
25 10 11 26 43 35 72 17 51 53 136 80 189 8 16 15 33 15 39 0 5 7 16 15 24 8
9 15 24 15 34 0 10 5 22 10 25 6 3 10 16 10 29 0 24 9 38 19 31 4 -2 9 -41 10
-87z m1809 -357 c7 -4 15 -26 17 -47 2 -21 9 -93 15 -159 7 -66 14 -136 15
-155 2 -19 6 -64 10 -100 4 -36 9 -99 11 -140 3 -88 14 -134 32 -138 10 -2 10
2 2 17 -5 11 -9 35 -8 53 1 18 -2 69 -6 113 -8 95 -26 298 -32 375 -7 92 -11
124 -19 153 -5 17 -3 27 4 27 6 0 11 -6 11 -14 0 -7 10 -33 23 -57 12 -24 33
-71 46 -104 29 -76 34 -88 65 -157 14 -31 26 -62 26 -68 0 -7 6 -24 14 -38 22
-42 66 -142 66 -150 0 -5 11 -32 25 -60 14 -29 25 -56 25 -62 0 -6 4 -18 9
-28 46 -94 58 -144 39 -159 -15 -12 -119 -22 -111 -11 2 5 -32 8 -76 8 -88 0
-100 8 -101 66 -1 69 -3 84 -10 84 -10 0 -22 -59 -14 -72 3 -5 3 -25 0 -44
l-7 -34 -213 0 -214 0 -16 24 c-13 20 -13 31 -4 58 6 18 17 40 24 49 8 8 14
25 14 36 0 11 9 32 20 46 11 14 20 34 20 45 0 11 7 25 15 32 8 7 15 21 15 30
0 10 7 31 14 47 8 15 17 35 20 43 3 8 10 23 16 33 5 9 15 25 20 35 10 17 21
40 48 102 8 19 21 47 29 62 7 14 13 33 13 41 0 8 7 20 15 27 9 7 13 20 10 28
-3 7 1 26 9 40 8 15 20 47 27 72 19 66 21 68 47 51z"/>
</g>
</svg>
