<svg width="448" height="144" viewBox="0 0 448 144" fill="none" xmlns="http://www.w3.org/2000/svg">
<rect y="71" width="448" height="73" rx="8" fill="#030303"/>
<path d="M38.04 122.48C36.6 122.48 35.3067 122.267 34.16 121.84C33.04 121.413 32.08 120.773 31.28 119.92C30.5067 119.067 29.9067 117.987 29.48 116.68C29.08 115.347 28.88 113.787 28.88 112V95.84H33.52V112.36C33.52 113.773 33.6933 114.933 34.04 115.84C34.4133 116.72 34.9467 117.373 35.64 117.8C36.3333 118.227 37.1333 118.44 38.04 118.44C39 118.44 39.8133 118.227 40.48 117.8C41.1733 117.373 41.7067 116.72 42.08 115.84C42.48 114.933 42.68 113.773 42.68 112.36V95.84H47.12V112C47.12 113.787 46.92 115.347 46.52 116.68C46.12 117.987 45.52 119.067 44.72 119.92C43.9467 120.773 43 121.413 41.88 121.84C40.76 122.267 39.48 122.48 38.04 122.48ZM62.0644 122.48C60.2244 122.48 58.4644 122.147 56.7844 121.48C55.1044 120.813 53.611 119.867 52.3044 118.64L55.0244 115.48C56.011 116.36 57.131 117.08 58.3844 117.64C59.6377 118.173 60.9577 118.44 62.3444 118.44C63.8644 118.44 65.0244 118.147 65.8244 117.56C66.6244 116.947 67.0244 116.187 67.0244 115.28C67.0244 114.507 66.8377 113.893 66.4644 113.44C66.091 112.96 65.571 112.56 64.9044 112.24C64.2644 111.92 63.5044 111.587 62.6244 111.24L59.0644 109.68C58.1577 109.307 57.2644 108.827 56.3844 108.24C55.531 107.653 54.8244 106.907 54.2644 106C53.731 105.093 53.4644 104 53.4644 102.72C53.4644 101.333 53.851 100.093 54.6244 99C55.3977 97.88 56.4644 97 57.8244 96.36C59.211 95.6933 60.7844 95.36 62.5444 95.36C64.1444 95.36 65.6644 95.6667 67.1044 96.28C68.571 96.8667 69.851 97.6667 70.9444 98.68L68.5444 101.64C67.6644 100.92 66.731 100.373 65.7444 100C64.7844 99.6 63.6377 99.4 62.3044 99.4C61.0777 99.4 60.0777 99.6667 59.3044 100.2C58.531 100.733 58.1444 101.493 58.1444 102.48C58.1444 103.147 58.3577 103.693 58.7844 104.12C59.211 104.547 59.7577 104.92 60.4244 105.24C61.1177 105.56 61.851 105.867 62.6244 106.16L66.0644 107.64C67.1844 108.067 68.171 108.587 69.0244 109.2C69.8777 109.813 70.5444 110.573 71.0244 111.48C71.5044 112.36 71.7444 113.44 71.7444 114.72C71.7444 116.133 71.3577 117.427 70.5844 118.6C69.811 119.773 68.7044 120.72 67.2644 121.44C65.8244 122.133 64.091 122.48 62.0644 122.48ZM77.0888 122V95.84H83.9688C86.5288 95.84 88.7288 96.32 90.5688 97.28C92.4354 98.24 93.8488 99.68 94.8088 101.6C95.7954 103.52 96.2888 105.92 96.2888 108.8C96.2888 111.707 95.7954 114.147 94.8088 116.12C93.8488 118.067 92.4621 119.533 90.6488 120.52C88.8354 121.507 86.6888 122 84.2088 122H77.0888ZM81.7288 118.24H83.6888C85.3688 118.24 86.7821 117.907 87.9288 117.24C89.1021 116.547 89.9954 115.507 90.6088 114.12C91.2221 112.733 91.5288 110.96 91.5288 108.8C91.5288 106.667 91.2221 104.92 90.6088 103.56C89.9954 102.2 89.1021 101.2 87.9288 100.56C86.7821 99.92 85.3688 99.6 83.6888 99.6H81.7288V118.24ZM107.633 122V99.72H99.3931V95.84H120.513V99.72H112.273V122H107.633Z" fill="white" fill-opacity="0.5"/>
<path d="M155.882 132V92H159.962V132H155.882ZM198.011 122V95.84H214.771V99.76H202.651V106.44H212.931V110.36H202.651V118.08H215.171V122H198.011ZM227.555 122V99.72H219.315V95.84H240.435V99.72H232.195V122H227.555ZM244.699 122V95.84H249.379V106.36H258.339V95.84H263.019V122H258.339V110.4H249.379V122H244.699ZM269.284 128.4L282.444 93.6H286.404L273.244 128.4H269.284ZM301.868 122.48C300.428 122.48 299.135 122.267 297.988 121.84C296.868 121.413 295.908 120.773 295.108 119.92C294.335 119.067 293.735 117.987 293.308 116.68C292.908 115.347 292.708 113.787 292.708 112V95.84H297.348V112.36C297.348 113.773 297.521 114.933 297.868 115.84C298.241 116.72 298.775 117.373 299.468 117.8C300.161 118.227 300.961 118.44 301.868 118.44C302.828 118.44 303.641 118.227 304.308 117.8C305.001 117.373 305.535 116.72 305.908 115.84C306.308 114.933 306.508 113.773 306.508 112.36V95.84H310.948V112C310.948 113.787 310.748 115.347 310.348 116.68C309.948 117.987 309.348 119.067 308.548 119.92C307.775 120.773 306.828 121.413 305.708 121.84C304.588 122.267 303.308 122.48 301.868 122.48ZM325.893 122.48C324.053 122.48 322.293 122.147 320.613 121.48C318.933 120.813 317.439 119.867 316.133 118.64L318.853 115.48C319.839 116.36 320.959 117.08 322.213 117.64C323.466 118.173 324.786 118.44 326.173 118.44C327.693 118.44 328.853 118.147 329.653 117.56C330.453 116.947 330.853 116.187 330.853 115.28C330.853 114.507 330.666 113.893 330.293 113.44C329.919 112.96 329.399 112.56 328.733 112.24C328.093 111.92 327.333 111.587 326.453 111.24L322.893 109.68C321.986 109.307 321.093 108.827 320.213 108.24C319.359 107.653 318.653 106.907 318.093 106C317.559 105.093 317.293 104 317.293 102.72C317.293 101.333 317.679 100.093 318.453 99C319.226 97.88 320.293 97 321.653 96.36C323.039 95.6933 324.613 95.36 326.373 95.36C327.973 95.36 329.493 95.6667 330.933 96.28C332.399 96.8667 333.679 97.6667 334.773 98.68L332.373 101.64C331.493 100.92 330.559 100.373 329.573 100C328.613 99.6 327.466 99.4 326.133 99.4C324.906 99.4 323.906 99.6667 323.133 100.2C322.359 100.733 321.973 101.493 321.973 102.48C321.973 103.147 322.186 103.693 322.613 104.12C323.039 104.547 323.586 104.92 324.253 105.24C324.946 105.56 325.679 105.867 326.453 106.16L329.893 107.64C331.013 108.067 331.999 108.587 332.853 109.2C333.706 109.813 334.373 110.573 334.853 111.48C335.333 112.36 335.573 113.44 335.573 114.72C335.573 116.133 335.186 117.427 334.413 118.6C333.639 119.773 332.533 120.72 331.093 121.44C329.653 122.133 327.919 122.48 325.893 122.48ZM340.917 122V95.84H347.797C350.357 95.84 352.557 96.32 354.397 97.28C356.264 98.24 357.677 99.68 358.637 101.6C359.624 103.52 360.117 105.92 360.117 108.8C360.117 111.707 359.624 114.147 358.637 116.12C357.677 118.067 356.29 119.533 354.477 120.52C352.664 121.507 350.517 122 348.037 122H340.917ZM345.557 118.24H347.517C349.197 118.24 350.61 117.907 351.757 117.24C352.93 116.547 353.824 115.507 354.437 114.12C355.05 112.733 355.357 110.96 355.357 108.8C355.357 106.667 355.05 104.92 354.437 103.56C353.824 102.2 352.93 101.2 351.757 100.56C350.61 99.92 349.197 99.6 347.517 99.6H345.557V118.24Z" fill="white"/>
<path d="M419 105.375L412 112.375L405 105.375" fill="white"/>
<path fill-rule="evenodd" clip-rule="evenodd" d="M404.192 105.04C404.327 104.713 404.646 104.5 405 104.5H419C419.354 104.5 419.673 104.713 419.808 105.04C419.944 105.367 419.869 105.743 419.619 105.994L412.619 112.994C412.277 113.335 411.723 113.335 411.381 112.994L404.381 105.994C404.131 105.743 404.056 105.367 404.192 105.04ZM407.112 106.25L412 111.138L416.888 106.25H407.112Z" fill="white"/>
<path d="M4.256 37.984L6.544 34.508C7.80533 35.3293 9.08133 36.0187 10.372 36.576C11.692 37.104 13.1 37.368 14.596 37.368C16.004 37.368 17.06 37.104 17.764 36.576C18.4973 36.048 18.864 35.344 18.864 34.464C18.864 33.7013 18.5413 33.0707 17.896 32.572C17.2507 32.044 16.4147 31.5747 15.388 31.164C14.3907 30.7533 13.32 30.3427 12.176 29.932C11.032 29.492 9.94667 28.9787 8.92 28.392C7.92267 27.776 7.10133 27.028 6.456 26.148C5.81067 25.268 5.488 24.168 5.488 22.848C5.488 21.4107 5.86933 20.164 6.632 19.108C7.39467 18.052 8.46533 17.2453 9.844 16.688C11.252 16.1013 12.8507 15.808 14.64 15.808C16.6347 15.808 18.292 16.1453 19.612 16.82C20.9613 17.4947 22.1493 18.3453 23.176 19.372L20.624 22.32C19.5973 21.5573 18.6147 20.9707 17.676 20.56C16.7667 20.1493 15.6373 19.944 14.288 19.944C13.0853 19.944 12.132 20.1933 11.428 20.692C10.724 21.1907 10.372 21.88 10.372 22.76C10.372 23.4053 10.6947 23.9627 11.34 24.432C11.9853 24.9013 12.8213 25.3267 13.848 25.708C14.8747 26.0893 15.9453 26.5 17.06 26.94C18.204 27.3507 19.2747 27.864 20.272 28.48C21.2987 29.096 22.1347 29.8587 22.78 30.768C23.4547 31.648 23.792 32.7627 23.792 34.112C23.792 35.5493 23.3813 36.8253 22.56 37.94C21.768 39.0547 20.6387 39.9347 19.172 40.58C17.7347 41.196 15.9893 41.504 13.936 41.504C12.8213 41.504 11.6627 41.3573 10.46 41.064C9.28667 40.7413 8.15733 40.316 7.072 39.788C6.016 39.26 5.07733 38.6587 4.256 37.984ZM12.66 17.48V10.176H16.18V17.48H12.66ZM12.66 39.524H16.18V47.84H12.66V39.524ZM31.2548 43V38.864H39.0428V20.472H32.8388V17.304C34.0121 17.128 35.0388 16.9373 35.9188 16.732C36.7988 16.5267 37.5908 16.2773 38.2948 15.984C39.0281 15.6907 39.7321 15.368 40.4068 15.016H44.1028V38.864H50.9668V43H31.2548ZM63.4016 52.46L62.0816 49.424C64.0176 48.6613 65.4403 47.6933 66.3496 46.52C67.2883 45.376 67.743 43.9973 67.7136 42.384L67.1856 37.72L69.7816 41.68C69.4003 42.0613 68.975 42.3253 68.5056 42.472C68.0656 42.6187 67.5963 42.692 67.0976 42.692C66.3643 42.692 65.675 42.5453 65.0296 42.252C64.4136 41.9587 63.915 41.5187 63.5336 40.932C63.1523 40.3453 62.9616 39.6267 62.9616 38.776C62.9616 37.5733 63.3723 36.62 64.1936 35.916C65.0443 35.212 66.0416 34.86 67.1856 34.86C68.7696 34.86 69.9576 35.4467 70.7496 36.62C71.5416 37.7933 71.9376 39.4067 71.9376 41.46C71.9376 44.1293 71.1896 46.4027 69.6936 48.28C68.227 50.1573 66.1296 51.5507 63.4016 52.46ZM92.6444 43.528C91.0311 43.528 89.5791 43.352 88.2884 43C87.0271 42.648 85.9124 42.1787 84.9444 41.592C83.9764 40.976 83.1258 40.3307 82.3924 39.656L84.7244 36.4C85.3698 36.928 86.0444 37.4267 86.7484 37.896C87.4524 38.336 88.2298 38.7027 89.0804 38.996C89.9604 39.26 90.9431 39.392 92.0284 39.392C93.2018 39.392 94.2578 39.1867 95.1964 38.776C96.1351 38.336 96.8684 37.72 97.3964 36.928C97.9538 36.1067 98.2324 35.1387 98.2324 34.024C98.2324 32.352 97.6751 31.0613 96.5604 30.152C95.4751 29.2427 94.0378 28.788 92.2484 28.788C91.2218 28.788 90.3418 28.92 89.6084 29.184C88.8751 29.4187 88.0244 29.8147 87.0564 30.372L84.6364 28.832L85.5164 15.016H102.016V19.284H89.9164L89.3004 26.06C90.0338 25.7667 90.7378 25.5467 91.4124 25.4C92.0871 25.224 92.8498 25.136 93.7004 25.136C95.4604 25.136 97.0738 25.4587 98.5404 26.104C100.007 26.72 101.166 27.6733 102.016 28.964C102.896 30.2547 103.336 31.8973 103.336 33.892C103.336 35.9453 102.838 37.6907 101.84 39.128C100.843 40.5653 99.5231 41.6653 97.8804 42.428C96.2671 43.1613 94.5218 43.528 92.6444 43.528ZM120.567 43.528C119.071 43.528 117.663 43.264 116.343 42.736C115.023 42.1787 113.85 41.3427 112.823 40.228C111.797 39.1133 110.99 37.6907 110.403 35.96C109.817 34.2293 109.523 32.1907 109.523 29.844C109.523 27.1453 109.846 24.828 110.491 22.892C111.166 20.9267 112.061 19.328 113.175 18.096C114.29 16.864 115.566 15.9547 117.003 15.368C118.441 14.7813 119.922 14.488 121.447 14.488C123.295 14.488 124.909 14.796 126.287 15.412C127.695 16.028 128.869 16.776 129.807 17.656L127.079 20.736C126.434 20.12 125.642 19.6213 124.703 19.24C123.794 18.8293 122.841 18.624 121.843 18.624C120.494 18.624 119.233 18.976 118.059 19.68C116.915 20.384 115.991 21.5573 115.287 23.2C114.583 24.8427 114.231 27.0573 114.231 29.844C114.231 32.1613 114.495 34.0387 115.023 35.476C115.551 36.9133 116.285 37.9693 117.223 38.644C118.191 39.3187 119.291 39.656 120.523 39.656C121.433 39.656 122.269 39.4507 123.031 39.04C123.823 38.6293 124.439 38.028 124.879 37.236C125.349 36.444 125.583 35.476 125.583 34.332C125.583 32.66 125.143 31.4133 124.263 30.592C123.383 29.7707 122.137 29.36 120.523 29.36C119.555 29.36 118.514 29.624 117.399 30.152C116.314 30.6507 115.243 31.5453 114.187 32.836L114.011 29.272C115.097 28.128 116.314 27.248 117.663 26.632C119.013 25.9867 120.318 25.664 121.579 25.664C123.251 25.664 124.747 25.9867 126.067 26.632C127.387 27.248 128.414 28.2013 129.147 29.492C129.91 30.7827 130.291 32.396 130.291 34.332C130.291 36.2093 129.837 37.8373 128.927 39.216C128.047 40.5947 126.874 41.6653 125.407 42.428C123.941 43.1613 122.327 43.528 120.567 43.528ZM145.366 43.528C143.753 43.528 142.301 43.352 141.01 43C139.749 42.648 138.619 42.1787 137.622 41.592C136.625 40.976 135.789 40.3013 135.114 39.568L137.49 36.312C138.429 37.1627 139.514 37.896 140.746 38.512C142.007 39.0987 143.401 39.392 144.926 39.392C146.07 39.392 147.097 39.2307 148.006 38.908C148.915 38.556 149.619 38.072 150.118 37.456C150.646 36.8107 150.91 36.048 150.91 35.168C150.91 34.2 150.617 33.364 150.03 32.66C149.443 31.956 148.475 31.4133 147.126 31.032C145.777 30.6213 143.943 30.416 141.626 30.416V26.72C143.65 26.72 145.263 26.5293 146.466 26.148C147.669 25.7373 148.549 25.2093 149.106 24.564C149.663 23.8893 149.942 23.112 149.942 22.232C149.942 21.0587 149.487 20.1493 148.578 19.504C147.698 18.8293 146.51 18.492 145.014 18.492C143.811 18.492 142.682 18.7413 141.626 19.24C140.57 19.7093 139.573 20.34 138.634 21.132L135.994 18.008C137.285 16.952 138.693 16.1013 140.218 15.456C141.773 14.8107 143.445 14.488 145.234 14.488C147.141 14.488 148.827 14.7813 150.294 15.368C151.79 15.9253 152.949 16.7613 153.77 17.876C154.621 18.9613 155.046 20.296 155.046 21.88C155.046 23.4347 154.533 24.74 153.506 25.796C152.479 26.852 151.101 27.688 149.37 28.304V28.48C150.602 28.7733 151.717 29.228 152.714 29.844C153.741 30.46 154.547 31.2373 155.134 32.176C155.721 33.1147 156.014 34.2 156.014 35.432C156.014 37.1333 155.515 38.6 154.518 39.832C153.55 41.0347 152.259 41.9587 150.646 42.604C149.062 43.22 147.302 43.528 145.366 43.528ZM172.497 43.528C171.265 43.528 170.224 43.1027 169.373 42.252C168.552 41.4013 168.141 40.3453 168.141 39.084C168.141 37.7933 168.552 36.7373 169.373 35.916C170.224 35.0653 171.265 34.64 172.497 34.64C173.758 34.64 174.8 35.0653 175.621 35.916C176.442 36.7373 176.853 37.7933 176.853 39.084C176.853 40.3453 176.442 41.4013 175.621 42.252C174.8 43.1027 173.758 43.528 172.497 43.528ZM198.88 43.528C196.768 43.528 194.934 42.956 193.38 41.812C191.825 40.668 190.622 39.0107 189.772 36.84C188.921 34.6693 188.496 32.0147 188.496 28.876C188.496 24.1533 189.434 20.5747 191.312 18.14C193.189 15.7053 195.712 14.488 198.88 14.488C202.077 14.488 204.6 15.7053 206.448 18.14C208.325 20.5747 209.264 24.1533 209.264 28.876C209.264 32.0147 208.838 34.6693 207.988 36.84C207.166 39.0107 205.978 40.668 204.424 41.812C202.869 42.956 201.021 43.528 198.88 43.528ZM198.88 39.568C199.994 39.568 200.992 39.216 201.872 38.512C202.752 37.7787 203.441 36.6347 203.94 35.08C204.438 33.496 204.688 31.428 204.688 28.876C204.688 26.324 204.438 24.2853 203.94 22.76C203.441 21.2347 202.752 20.1347 201.872 19.46C200.992 18.7853 199.994 18.448 198.88 18.448C197.765 18.448 196.768 18.7853 195.888 19.46C195.008 20.1347 194.318 21.2347 193.82 22.76C193.321 24.2853 193.072 26.324 193.072 28.876C193.072 31.428 193.321 33.496 193.82 35.08C194.318 36.6347 195.008 37.7787 195.888 38.512C196.768 39.216 197.765 39.568 198.88 39.568ZM198.88 31.824C198.058 31.824 197.34 31.5453 196.724 30.988C196.137 30.4307 195.844 29.668 195.844 28.7C195.844 27.732 196.137 26.9693 196.724 26.412C197.34 25.8547 198.058 25.576 198.88 25.576C199.73 25.576 200.449 25.8547 201.036 26.412C201.622 26.9693 201.916 27.732 201.916 28.7C201.916 29.668 201.622 30.4307 201.036 30.988C200.449 31.5453 199.73 31.824 198.88 31.824ZM225.263 43.528C223.151 43.528 221.317 42.956 219.763 41.812C218.208 40.668 217.005 39.0107 216.155 36.84C215.304 34.6693 214.879 32.0147 214.879 28.876C214.879 24.1533 215.817 20.5747 217.695 18.14C219.572 15.7053 222.095 14.488 225.263 14.488C228.46 14.488 230.983 15.7053 232.831 18.14C234.708 20.5747 235.647 24.1533 235.647 28.876C235.647 32.0147 235.221 34.6693 234.371 36.84C233.549 39.0107 232.361 40.668 230.807 41.812C229.252 42.956 227.404 43.528 225.263 43.528ZM225.263 39.568C226.377 39.568 227.375 39.216 228.255 38.512C229.135 37.7787 229.824 36.6347 230.323 35.08C230.821 33.496 231.071 31.428 231.071 28.876C231.071 26.324 230.821 24.2853 230.323 22.76C229.824 21.2347 229.135 20.1347 228.255 19.46C227.375 18.7853 226.377 18.448 225.263 18.448C224.148 18.448 223.151 18.7853 222.271 19.46C221.391 20.1347 220.701 21.2347 220.203 22.76C219.704 24.2853 219.455 26.324 219.455 28.876C219.455 31.428 219.704 33.496 220.203 35.08C220.701 36.6347 221.391 37.7787 222.271 38.512C223.151 39.216 224.148 39.568 225.263 39.568ZM225.263 31.824C224.441 31.824 223.723 31.5453 223.107 30.988C222.52 30.4307 222.227 29.668 222.227 28.7C222.227 27.732 222.52 26.9693 223.107 26.412C223.723 25.8547 224.441 25.576 225.263 25.576C226.113 25.576 226.832 25.8547 227.419 26.412C228.005 26.9693 228.299 27.732 228.299 28.7C228.299 29.668 228.005 30.4307 227.419 30.988C226.832 31.5453 226.113 31.824 225.263 31.824Z" fill="#030303"/>
<path d="M366 36.25L360 30.25L354 36.25" fill="#030303"/>
<path fill-rule="evenodd" clip-rule="evenodd" d="M353.307 36.537C353.423 36.8173 353.697 37 354 37H366C366.303 37 366.577 36.8173 366.693 36.537C366.809 36.2568 366.745 35.9342 366.53 35.7197L360.53 29.7197C360.237 29.4268 359.763 29.4268 359.47 29.7197L353.47 35.7197C353.255 35.9342 353.191 36.2568 353.307 36.537ZM355.811 35.5L360 31.3107L364.189 35.5H355.811Z" fill="#030303"/>
<path d="M377.56 43V41.392C379.16 40.016 380.528 38.792 381.664 37.72C382.816 36.648 383.696 35.672 384.304 34.792C384.928 33.896 385.24 33.056 385.24 32.272C385.24 31.456 384.992 30.816 384.496 30.352C384 29.872 383.272 29.632 382.312 29.632C381.656 29.632 381.048 29.8 380.488 30.136C379.928 30.472 379.416 30.872 378.952 31.336L377.44 29.8C378.176 29.048 378.952 28.472 379.768 28.072C380.584 27.656 381.552 27.448 382.672 27.448C383.728 27.448 384.64 27.64 385.408 28.024C386.192 28.408 386.8 28.952 387.232 29.656C387.664 30.36 387.88 31.184 387.88 32.128C387.88 33.024 387.6 33.944 387.04 34.888C386.48 35.816 385.72 36.768 384.76 37.744C383.816 38.72 382.752 39.744 381.568 40.816C382.016 40.768 382.488 40.728 382.984 40.696C383.48 40.664 383.936 40.648 384.352 40.648H388.672V43H377.56ZM397.591 43.288C396.919 43.288 396.351 43.056 395.887 42.592C395.439 42.128 395.215 41.552 395.215 40.864C395.215 40.16 395.439 39.584 395.887 39.136C396.351 38.672 396.919 38.44 397.591 38.44C398.279 38.44 398.847 38.672 399.295 39.136C399.743 39.584 399.967 40.16 399.967 40.864C399.967 41.552 399.743 42.128 399.295 42.592C398.847 43.056 398.279 43.288 397.591 43.288ZM411.573 43.288C410.693 43.288 409.901 43.192 409.197 43C408.509 42.808 407.893 42.552 407.349 42.232C406.805 41.896 406.349 41.528 405.981 41.128L407.277 39.352C407.789 39.816 408.381 40.216 409.053 40.552C409.741 40.872 410.501 41.032 411.333 41.032C411.957 41.032 412.517 40.944 413.013 40.768C413.509 40.576 413.893 40.312 414.165 39.976C414.453 39.624 414.597 39.208 414.597 38.728C414.597 38.2 414.437 37.744 414.117 37.36C413.797 36.976 413.269 36.68 412.533 36.472C411.797 36.248 410.797 36.136 409.533 36.136V34.12C410.637 34.12 411.517 34.016 412.173 33.808C412.829 33.584 413.309 33.296 413.613 32.944C413.917 32.576 414.069 32.152 414.069 31.672C414.069 31.032 413.821 30.536 413.325 30.184C412.845 29.816 412.197 29.632 411.381 29.632C410.725 29.632 410.109 29.768 409.533 30.04C408.957 30.296 408.413 30.64 407.901 31.072L406.461 29.368C407.165 28.792 407.933 28.328 408.765 27.976C409.613 27.624 410.525 27.448 411.501 27.448C412.541 27.448 413.461 27.608 414.261 27.928C415.077 28.232 415.709 28.688 416.157 29.296C416.621 29.888 416.853 30.616 416.853 31.48C416.853 32.328 416.573 33.04 416.013 33.616C415.453 34.192 414.701 34.648 413.757 34.984V35.08C414.429 35.24 415.037 35.488 415.581 35.824C416.141 36.16 416.581 36.584 416.901 37.096C417.221 37.608 417.381 38.2 417.381 38.872C417.381 39.8 417.109 40.6 416.565 41.272C416.037 41.928 415.333 42.432 414.453 42.784C413.589 43.12 412.629 43.288 411.573 43.288ZM421.284 43V40.744H425.532V30.712H422.148V28.984C422.788 28.888 423.348 28.784 423.828 28.672C424.308 28.56 424.74 28.424 425.124 28.264C425.524 28.104 425.908 27.928 426.276 27.736H428.292V40.744H432.036V43H421.284ZM437.643 35.416C436.987 35.416 436.395 35.256 435.867 34.936C435.355 34.616 434.947 34.152 434.643 33.544C434.339 32.936 434.187 32.216 434.187 31.384C434.187 30.136 434.515 29.168 435.171 28.48C435.827 27.792 436.651 27.448 437.643 27.448C438.651 27.448 439.475 27.792 440.115 28.48C440.771 29.168 441.099 30.136 441.099 31.384C441.099 32.216 440.947 32.936 440.643 33.544C440.339 34.152 439.923 34.616 439.395 34.936C438.883 35.256 438.299 35.416 437.643 35.416ZM437.643 33.88C438.059 33.88 438.411 33.688 438.699 33.304C438.987 32.904 439.131 32.264 439.131 31.384C439.131 30.504 438.987 29.888 438.699 29.536C438.411 29.168 438.059 28.984 437.643 28.984C437.243 28.984 436.891 29.168 436.587 29.536C436.299 29.888 436.155 30.504 436.155 31.384C436.155 32.264 436.299 32.904 436.587 33.304C436.891 33.688 437.243 33.88 437.643 33.88ZM435.603 42.28L434.115 40.864L438.555 36.52L439.562 37.456L435.603 42.28ZM443.019 33.784L442.011 32.848L445.971 28.024L447.459 29.44L443.019 33.784ZM443.883 43.288C443.227 43.288 442.635 43.128 442.107 42.808C441.595 42.488 441.187 42.024 440.883 41.416C440.579 40.808 440.427 40.088 440.427 39.256C440.427 38.008 440.755 37.04 441.411 36.352C442.067 35.664 442.891 35.32 443.883 35.32C444.891 35.32 445.715 35.664 446.355 36.352C447.011 37.04 447.339 38.008 447.339 39.256C447.339 40.088 447.187 40.808 446.883 41.416C446.579 42.024 446.163 42.488 445.635 42.808C445.123 43.128 444.539 43.288 443.883 43.288ZM443.883 41.752C444.299 41.752 444.651 41.56 444.939 41.176C445.227 40.776 445.371 40.136 445.371 39.256C445.371 38.376 445.227 37.76 444.939 37.408C444.651 37.04 444.299 36.856 443.883 36.856C443.483 36.856 443.131 37.04 442.827 37.408C442.539 37.76 442.395 38.376 442.395 39.256C442.395 40.136 442.539 40.776 442.827 41.176C443.131 41.56 443.483 41.752 443.883 41.752Z" fill="#030303"/>
</svg>
