
<?xml version="1.0" standalone="no"?>
<!DOCTYPE svg PUBLIC "-//W3C//DTD SVG 20010904//EN"
 "http://www.w3.org/TR/2001/REC-SVG-20010904/DTD/svg10.dtd">
<svg version="1.0" xmlns="http://www.w3.org/2000/svg"
 width="414.000000pt" height="269.000000pt" viewBox="0 0 414.000000 269.000000"
 preserveAspectRatio="xMidYMid meet">
<metadata>
Created by potrace 1.16, written by Peter Selinger 2001-2019
</metadata>
<g transform="translate(0.000000,269.000000) scale(0.100000,-0.100000)"
fill="#000000" stroke="none">
<path d="M1780 2298 c-11 -18 -20 -41 -20 -50 0 -29 30 -20 41 12 11 31 34 43
25 13 -13 -44 -36 -150 -36 -171 0 -25 26 -40 42 -24 6 6 21 48 35 93 26 91
44 119 78 119 34 0 36 -20 10 -95 -27 -77 -22 -110 20 -121 31 -8 69 15 90 55
12 24 12 31 1 40 -11 9 -18 4 -36 -26 -28 -47 -37 -28 -16 34 23 68 21 118 -6
137 -28 20 -78 21 -103 2 -17 -12 -22 -12 -39 0 -34 24 -64 17 -86 -18z"/>
<path d="M1400 1917 c0 -13 13 -42 28 -63 297 -406 365 -501 366 -510 0 -6
-88 -113 -196 -237 -109 -124 -198 -233 -198 -242 0 -14 51 -15 472 -13 l471
3 39 103 c52 139 56 162 30 162 -13 0 -27 -11 -36 -29 -19 -36 -77 -87 -120
-105 -93 -39 -173 -47 -449 -44 l-269 3 196 224 196 225 -16 25 c-17 27 -29
43 -137 191 -168 230 -197 271 -197 276 0 3 125 4 278 2 250 -4 283 -7 343
-26 78 -26 143 -70 171 -118 20 -34 58 -47 58 -21 0 16 -43 125 -71 180 l-19
37 -470 0 -470 0 0 -23z"/>
<path d="M2681 1511 c-43 -43 -59 -77 -43 -93 15 -15 41 -2 51 25 11 27 56 67
77 67 30 0 32 -34 7 -130 -24 -94 -45 -140 -63 -140 -6 0 -5 10 2 25 14 30 -3
55 -38 55 -45 0 -69 -53 -44 -100 15 -29 76 -37 116 -15 30 16 34 16 55 1 64
-44 168 8 185 94 6 26 4 30 -15 30 -14 0 -25 -9 -31 -25 -20 -52 -86 -86 -105
-55 -10 16 33 191 55 228 25 40 42 42 27 3 -8 -23 -8 -33 2 -45 30 -36 91 -5
91 46 0 56 -81 88 -135 52 -22 -14 -26 -14 -47 0 -12 9 -42 16 -65 16 -37 0
-49 -6 -82 -39z"/>
<path d="M3164 1436 c-9 -23 0 -50 17 -54 21 -4 51 26 47 47 -4 21 -56 28 -64
7z"/>
<path d="M3118 1322 c-41 -24 -65 -92 -34 -92 8 0 21 12 28 27 7 14 18 28 25
30 8 3 4 -21 -12 -68 -29 -85 -31 -112 -9 -134 34 -33 114 16 114 71 0 36 -27
30 -44 -11 -8 -19 -20 -35 -26 -35 -13 0 -8 20 26 102 29 69 29 80 7 100 -29
24 -48 27 -75 10z"/>
<path d="M1582 718 c-16 -16 -15 -43 1 -56 20 -17 59 14 55 41 -3 25 -37 34
-56 15z"/>
<path d="M2210 720 c-8 -6 -32 -15 -52 -20 -38 -11 -50 -33 -24 -43 8 -3 24
-3 35 0 21 5 21 2 21 -126 0 -130 0 -131 -23 -131 -23 0 -47 -17 -47 -32 0 -4
48 -8 106 -8 95 0 105 2 102 18 -2 11 -14 18 -36 20 l-32 3 0 165 c0 150 -2
164 -17 164 -10 0 -25 -5 -33 -10z"/>
<path d="M1516 588 c-14 -13 -28 -35 -32 -50 -5 -24 -3 -28 15 -28 12 0 21 6
21 13 0 18 27 53 35 46 3 -4 -7 -43 -24 -87 -24 -67 -27 -84 -17 -103 13 -28
49 -36 82 -19 24 13 56 68 48 82 -10 16 -35 7 -44 -16 -5 -13 -14 -27 -19 -31
-18 -11 -12 26 14 90 30 72 31 87 7 108 -26 23 -56 21 -86 -5z"/>
<path d="M1685 559 c-16 -25 18 -29 191 -27 151 3 179 5 179 18 0 13 -28 15
-182 18 -125 2 -184 -1 -188 -9z"/>
<path d="M1691 457 c-6 -8 -8 -17 -4 -20 3 -4 89 -7 190 -7 170 0 184 1 181
18 -3 15 -21 17 -179 20 -139 2 -179 0 -188 -11z"/>
</g>
</svg>
