<svg width="500" height="175" viewBox="0 0 500 175" fill="none" xmlns="http://www.w3.org/2000/svg">
<path fill-rule="evenodd" clip-rule="evenodd" d="M13.3137 174.142L0.585785 161.414C-0.195259 160.633 -0.195259 159.367 0.585785 158.586L13.3137 145.858C14.0948 145.077 15.3611 145.077 16.1421 145.858C16.9232 146.639 16.9232 147.905 16.1421 148.686L6.82843 158H124V162H6.82843L16.1421 171.314C16.9232 172.095 16.9232 173.361 16.1421 174.142C15.3611 174.923 14.0948 174.923 13.3137 174.142Z" fill="#030303"/>
<path fill-rule="evenodd" clip-rule="evenodd" d="M486.686 29.142L499.414 16.4141C500.195 15.633 500.195 14.3667 499.414 13.5856L486.686 0.857725C485.905 0.0766764 484.639 0.0766764 483.858 0.857725C483.077 1.63877 483.077 2.9051 483.858 3.68615L493.172 12.9999L376 12.9999V16.9999L493.172 16.9999L483.858 26.3136C483.077 27.0946 483.077 28.3609 483.858 29.142C484.639 29.923 485.905 29.923 486.686 29.142Z" fill="#030303"/>
<path fill-rule="evenodd" clip-rule="evenodd" d="M122.008 158.263L376.008 13.2629L377.991 16.7368L123.991 161.737L122.008 158.263Z" fill="#030303"/>
<path fill-rule="evenodd" clip-rule="evenodd" d="M498 88L12 88L12 87L498 87L498 88Z" fill="#030303"/>
<path fill-rule="evenodd" clip-rule="evenodd" d="M250 160L250 15L251 15L251 160L250 160Z" fill="#030303"/>
</svg>
