<svg width="24" height="24" viewBox="0 0 24 24" fill="none" xmlns="http://www.w3.org/2000/svg">
<path d="M10.7971 17.775C11.1721 17.775 11.5096 18.075 11.5096 18.4875C11.5096 18.8625 11.2096 19.2 10.7971 19.2C10.4221 19.2 10.0846 18.9 10.0846 18.4875C10.0846 18.075 10.4221 17.775 10.7971 17.775ZM21.8221 13.425C21.4471 13.425 21.1096 13.125 21.1096 12.7125C21.1096 12.3375 21.4096 12 21.8221 12C22.1971 12 22.5346 12.3 22.5346 12.7125C22.5346 13.0875 22.1971 13.425 21.8221 13.425ZM21.8221 10.5375C20.6221 10.5375 19.6471 11.5125 19.6471 12.7125C19.6471 12.9375 19.6846 13.1625 19.7596 13.3875L12.5971 17.2125C12.1846 16.6125 11.5096 16.275 10.7971 16.275C9.97212 16.275 9.22212 16.7625 8.84712 17.475L2.39712 14.1C1.72212 13.725 1.19712 12.6375 1.27212 11.5875C1.30962 11.0625 1.49712 10.65 1.75962 10.5C1.94712 10.3875 2.13462 10.425 2.39712 10.5375L2.43462 10.575C4.15962 11.475 9.74712 14.4 9.97212 14.5125C10.3471 14.6625 10.5346 14.7375 11.1721 14.4375L22.7221 8.4375C22.9096 8.3625 23.0971 8.2125 23.0971 7.95C23.0971 7.6125 22.7596 7.4625 22.7596 7.4625C22.0846 7.1625 21.0721 6.675 20.0971 6.225C17.9971 5.25 15.5971 4.125 14.5471 3.5625C13.6471 3.075 12.8971 3.4875 12.7846 3.5625L12.5221 3.675C7.75962 6.075 1.45962 9.1875 1.08462 9.4125C0.447123 9.7875 0.0346228 10.575 -0.00287717 11.55C-0.0778772 13.0875 0.709623 14.7 1.83462 15.2625L8.65962 18.7875C8.80962 19.8375 9.74712 20.6625 10.7971 20.6625C11.9971 20.6625 12.9346 19.725 12.9721 18.525L20.4721 14.475C20.8471 14.775 21.3346 14.925 21.8221 14.925C23.0221 14.925 23.9971 13.95 23.9971 12.75C23.9971 11.5125 23.0221 10.5375 21.8221 10.5375" fill="current"/>
</svg>
