<svg xmlns="http://www.w3.org/2000/svg" width="24" height="24" fill="none" viewBox="0 0 24 24">
  <path fill="current" d="M19.636 4.426A17.918 17.918 0 0 0 15.097 3c-.195.353-.424.829-.581 1.207a16.665 16.665 0 0 0-5.03 0A12.902 12.902 0 0 0 8.897 3a17.859 17.859 0 0 0-4.542 1.43C1.483 8.77.705 13.003 1.093 17.176a18.148 18.148 0 0 0 5.567 2.852c.448-.616.848-1.272 1.192-1.963a11.724 11.724 0 0 1-1.877-.914 9.42 9.42 0 0 0 .46-.364c3.62 1.693 7.553 1.693 11.13 0 .15.126.304.248.46.364-.595.359-1.225.666-1.88.916.343.689.742 1.346 1.191 1.963a18.108 18.108 0 0 0 5.57-2.854c.457-4.837-.78-9.031-3.27-12.75ZM8.346 14.61c-1.087 0-1.978-1.015-1.978-2.25 0-1.236.872-2.252 1.977-2.252 1.106 0 1.997 1.015 1.978 2.252.002 1.235-.872 2.25-1.978 2.25Zm7.309 0c-1.087 0-1.978-1.015-1.978-2.25 0-1.236.872-2.252 1.978-2.252 1.105 0 1.996 1.015 1.977 2.252 0 1.235-.872 2.25-1.978 2.25Z"/>
</svg>