<svg width="24" height="24" viewBox="0 0 24 24" fill="none" xmlns="http://www.w3.org/2000/svg">
<path d="M23 5.92417C22.2644 6.25038 21.473 6.471 20.6431 6.56954C21.4905 6.06187 22.1407 5.25861 22.4477 4.29989C21.6548 4.77022 20.7762 5.11142 19.842 5.29533C19.0935 4.49818 18.0271 4 16.8462 4C14.5805 4 12.743 5.83757 12.743 8.10325C12.743 8.42486 12.7794 8.7379 12.8498 9.0384C9.43961 8.86734 6.41596 7.23388 4.39203 4.75063C4.03889 5.35653 3.83632 6.06187 3.83632 6.81373C3.83632 8.23697 4.56125 9.49343 5.66165 10.2291C4.98935 10.208 4.35622 10.0234 3.80327 9.71529C3.80296 9.73273 3.80296 9.75017 3.80296 9.76731C3.80296 11.7554 5.21794 13.4137 7.09468 13.7904C6.75073 13.8846 6.3875 13.9345 6.01386 13.9345C5.74886 13.9345 5.49212 13.9091 5.24181 13.8614C5.76385 15.4912 7.27889 16.6776 9.07485 16.7109C7.67028 17.8116 5.90125 18.4674 3.9783 18.4674C3.64782 18.4674 3.32039 18.4481 3 18.4099C4.81493 19.5745 6.97228 20.2536 9.28936 20.2536C16.8367 20.2536 20.9641 14.0012 20.9641 8.57847C20.9641 8.40068 20.9602 8.22351 20.9522 8.04786C21.7546 7.46951 22.4501 6.74702 23 5.92417Z" fill="current"/>
</svg>
