<svg xmlns="http://www.w3.org/2000/svg" width="24" height="24" fill="none" viewBox="0 0 24 24">
  <mask id="a" width="22" height="22" x="1" y="1" maskUnits="userSpaceOnUse" style="mask-type:luminance">
    <path fill="current" d="M23 1H1v22h22V1Z"/>
  </mask>
  <g mask="url(#a)">
    <path fill="current" fill-rule="evenodd" d="m2.375 3.365-.807-.046v6.746l.963.973c-.376.238-.761.476-1.146.714l-.385.22v5.39l4.418 4.465.294.018c5.426.358 11.018-.037 16.243-1.86l.523-.184V13.32l-1.128-1.146.577-.577.22-.23V6.088l-4.555-4.575-.45.156C12.431 3.255 7.38 3.631 2.375 3.365Zm15.015-.963 3.997 4.025v4.629l-.578.577c-.183.184-.367.367-.55.541l1.458 1.467v5.6c-5.106 1.779-10.579 2.173-15.941 1.816L1.77 17.042v-4.63c.44-.265.87-.54 1.302-.815.22-.147.449-.284.669-.431l-1.412-1.43V4.135c.257.01.513.027.77.037 4.813.192 9.69-.22 14.282-1.779l.009.01Z" clip-rule="evenodd"/>
    <path fill="current" d="M19.828 8.47v2.247a80.189 80.189 0 0 1-7.47 6.343 36.995 36.995 0 0 0 7.81-1.347v2.484c-3.594 1.054-7.178 1.448-10.771 1.448a52.99 52.99 0 0 1-2.09-.046v-2.246a81.34 81.34 0 0 0 7.47-5.38c-1.787.229-3.584.33-5.371.33-.514 0-1.027 0-1.54-.028V9.791a42.64 42.64 0 0 0 1.53.027c3.475 0 6.958-.376 10.432-1.347Z"/>
  </g>
</svg>
